%TF.GenerationSoftware,KiCad,Pcbnew,9.0.8-9.0.8~ubuntu24.04.1*%
%TF.CreationDate,2026-04-27T03:49:06+05:30*%
%TF.ProjectId,robarm_kicad,726f6261-726d-45f6-9b69-6361642e6b69,rev?*%
%TF.SameCoordinates,Original*%
%TF.FileFunction,Soldermask,Top*%
%TF.FilePolarity,Negative*%
%FSLAX46Y46*%
G04 Gerber Fmt 4.6, Leading zero omitted, Abs format (unit mm)*
G04 Created by KiCad (PCBNEW 9.0.8-9.0.8~ubuntu24.04.1) date 2026-04-27 03:49:06*
%MOMM*%
%LPD*%
G01*
G04 APERTURE LIST*
G04 Aperture macros list*
%AMRoundRect*
0 Rectangle with rounded corners*
0 $1 Rounding radius*
0 $2 $3 $4 $5 $6 $7 $8 $9 X,Y pos of 4 corners*
0 Add a 4 corners polygon primitive as box body*
4,1,4,$2,$3,$4,$5,$6,$7,$8,$9,$2,$3,0*
0 Add four circle primitives for the rounded corners*
1,1,$1+$1,$2,$3*
1,1,$1+$1,$4,$5*
1,1,$1+$1,$6,$7*
1,1,$1+$1,$8,$9*
0 Add four rect primitives between the rounded corners*
20,1,$1+$1,$2,$3,$4,$5,0*
20,1,$1+$1,$4,$5,$6,$7,0*
20,1,$1+$1,$6,$7,$8,$9,0*
20,1,$1+$1,$8,$9,$2,$3,0*%
%AMOutline4P*
0 Free polygon, 4 corners , with rotation*
0 The origin of the aperture is its center*
0 number of corners: always 4*
0 $1 to $8 corner X, Y*
0 $9 Rotation angle, in degrees counterclockwise*
0 create outline with 4 corners*
4,1,4,$1,$2,$3,$4,$5,$6,$7,$8,$1,$2,$9*%
%AMOutline5P*
0 Free polygon, 5 corners , with rotation*
0 The origin of the aperture is its center*
0 number of corners: always 5*
0 $1 to $10 corner X, Y*
0 $11 Rotation angle, in degrees counterclockwise*
0 create outline with 5 corners*
4,1,5,$1,$2,$3,$4,$5,$6,$7,$8,$9,$10,$1,$2,$11*%
%AMOutline6P*
0 Free polygon, 6 corners , with rotation*
0 The origin of the aperture is its center*
0 number of corners: always 6*
0 $1 to $12 corner X, Y*
0 $13 Rotation angle, in degrees counterclockwise*
0 create outline with 6 corners*
4,1,6,$1,$2,$3,$4,$5,$6,$7,$8,$9,$10,$11,$12,$1,$2,$13*%
%AMOutline7P*
0 Free polygon, 7 corners , with rotation*
0 The origin of the aperture is its center*
0 number of corners: always 7*
0 $1 to $14 corner X, Y*
0 $15 Rotation angle, in degrees counterclockwise*
0 create outline with 7 corners*
4,1,7,$1,$2,$3,$4,$5,$6,$7,$8,$9,$10,$11,$12,$13,$14,$1,$2,$15*%
%AMOutline8P*
0 Free polygon, 8 corners , with rotation*
0 The origin of the aperture is its center*
0 number of corners: always 8*
0 $1 to $16 corner X, Y*
0 $17 Rotation angle, in degrees counterclockwise*
0 create outline with 8 corners*
4,1,8,$1,$2,$3,$4,$5,$6,$7,$8,$9,$10,$11,$12,$13,$14,$15,$16,$1,$2,$17*%
G04 Aperture macros list end*
%ADD10O,2.000000X1.905000*%
%ADD11R,2.000000X1.905000*%
%ADD12C,3.500000*%
%ADD13Outline8P,-0.762000X0.350520X-0.350520X0.762000X0.350520X0.762000X0.762000X0.350520X0.762000X-0.350520X0.350520X-0.762000X-0.350520X-0.762000X-0.762000X-0.350520X0.000000*%
%ADD14Outline4P,-0.762000X0.762000X0.762000X0.762000X0.762000X-0.762000X-0.762000X-0.762000X0.000000*%
%ADD15RoundRect,0.875000X-0.875000X-0.875000X0.875000X-0.875000X0.875000X0.875000X-0.875000X0.875000X0*%
%ADD16RoundRect,0.750000X-0.750000X-1.000000X0.750000X-1.000000X0.750000X1.000000X-0.750000X1.000000X0*%
%ADD17R,3.500000X3.500000*%
%ADD18RoundRect,0.250000X0.600000X0.725000X-0.600000X0.725000X-0.600000X-0.725000X0.600000X-0.725000X0*%
%ADD19O,1.700000X1.950000*%
%ADD20C,3.000000*%
%ADD21C,2.184000*%
G04 APERTURE END LIST*
D10*
%TO.C,U5*%
X121793000Y-108686600D03*
X121793000Y-106146600D03*
D11*
X121793000Y-103606600D03*
D12*
X138453000Y-106146600D03*
%TD*%
D13*
%TO.C,U1*%
X144665000Y-116120000D03*
X144665000Y-118660000D03*
X144665000Y-121200000D03*
X144665000Y-123740000D03*
X144665000Y-126280000D03*
X144665000Y-128820000D03*
X144665000Y-131360000D03*
X144665000Y-133900000D03*
X144665000Y-136440000D03*
X144665000Y-138980000D03*
X144665000Y-141520000D03*
X144665000Y-144060000D03*
X144665000Y-146600000D03*
X144665000Y-149140000D03*
X144665000Y-151680000D03*
X144665000Y-154220000D03*
X144665000Y-156760000D03*
X144665000Y-159300000D03*
X144665000Y-161840000D03*
X144665000Y-164380000D03*
X129425000Y-164380000D03*
X129425000Y-161840000D03*
X129425000Y-159300000D03*
X129425000Y-156760000D03*
X129425000Y-154220000D03*
X129425000Y-151680000D03*
X129425000Y-149140000D03*
X129425000Y-146600000D03*
X129425000Y-144060000D03*
X129425000Y-141520000D03*
X129425000Y-138980000D03*
X129425000Y-136440000D03*
X129425000Y-133900000D03*
X129425000Y-131360000D03*
X129425000Y-128820000D03*
X129425000Y-126280000D03*
X129425000Y-123740000D03*
X129425000Y-121200000D03*
X129425000Y-118660000D03*
D14*
X129425000Y-116120000D03*
%TD*%
D15*
%TO.C,J7*%
X97500000Y-112200000D03*
D16*
X94500000Y-107500000D03*
D17*
X100500000Y-107500000D03*
%TD*%
D18*
%TO.C,J4*%
X99580000Y-152315000D03*
D19*
X97080000Y-152315000D03*
X94580000Y-152315000D03*
X92080000Y-152315000D03*
X89580000Y-152315000D03*
%TD*%
D18*
%TO.C,J2*%
X99695000Y-175260000D03*
D19*
X97195000Y-175260000D03*
X94695000Y-175260000D03*
X92195000Y-175260000D03*
X89695000Y-175260000D03*
%TD*%
D18*
%TO.C,J6*%
X99580000Y-129540000D03*
D19*
X97080000Y-129540000D03*
X94580000Y-129540000D03*
X92080000Y-129540000D03*
X89580000Y-129540000D03*
%TD*%
D18*
%TO.C,J1*%
X99695000Y-165100000D03*
D19*
X97195000Y-165100000D03*
X94695000Y-165100000D03*
X92195000Y-165100000D03*
X89695000Y-165100000D03*
%TD*%
D20*
%TO.C,M3*%
X145000000Y-175000000D03*
%TD*%
D21*
%TO.C,U3*%
X121805000Y-137075000D03*
X121805000Y-139615000D03*
X121805000Y-142155000D03*
X121805000Y-144695000D03*
X121805000Y-147235000D03*
X121805000Y-149775000D03*
X121805000Y-152315000D03*
X121805000Y-154855000D03*
X106565000Y-154855000D03*
X106565000Y-152315000D03*
X106565000Y-149775000D03*
X106565000Y-147235000D03*
X106565000Y-144695000D03*
X106565000Y-142155000D03*
X106565000Y-139615000D03*
X106565000Y-137075000D03*
%TD*%
D20*
%TO.C,M3*%
X109855000Y-105000000D03*
%TD*%
D21*
%TO.C,U4*%
X106565000Y-114300000D03*
X106565000Y-116840000D03*
X106565000Y-119380000D03*
X106565000Y-121920000D03*
X106565000Y-124460000D03*
X106565000Y-127000000D03*
X106565000Y-129540000D03*
X106565000Y-132080000D03*
X121805000Y-132080000D03*
X121805000Y-129540000D03*
X121805000Y-127000000D03*
X121805000Y-124460000D03*
X121805000Y-121920000D03*
X121805000Y-119380000D03*
X121805000Y-116840000D03*
X121805000Y-114300000D03*
%TD*%
D18*
%TO.C,J3*%
X99580000Y-142155000D03*
D19*
X97080000Y-142155000D03*
X94580000Y-142155000D03*
X92080000Y-142155000D03*
X89580000Y-142155000D03*
%TD*%
D21*
%TO.C,U2*%
X106680000Y-160020000D03*
X106680000Y-162560000D03*
X106680000Y-165100000D03*
X106680000Y-167640000D03*
X106680000Y-170180000D03*
X106680000Y-172720000D03*
X106680000Y-175260000D03*
X106680000Y-177800000D03*
X121920000Y-177800000D03*
X121920000Y-175260000D03*
X121920000Y-172720000D03*
X121920000Y-170180000D03*
X121920000Y-167640000D03*
X121920000Y-165100000D03*
X121920000Y-162560000D03*
X121920000Y-160020000D03*
%TD*%
D18*
%TO.C,J5*%
X99580000Y-119380000D03*
D19*
X97080000Y-119380000D03*
X94580000Y-119380000D03*
X92080000Y-119380000D03*
X89580000Y-119380000D03*
%TD*%
M02*
