M48
; DRILL file {KiCad 9.0.8-9.0.8~ubuntu24.04.1} date 2026-04-27T03:49:01+0530
; FORMAT={-:-/ absolute / metric / decimal}
; #@! TF.CreationDate,2026-04-27T03:49:01+05:30
; #@! TF.GenerationSoftware,Kicad,Pcbnew,9.0.8-9.0.8~ubuntu24.04.1
; #@! TF.FileFunction,Plated,1,2,PTH
FMAT,2
METRIC
; #@! TA.AperFunction,Plated,PTH,ViaDrill
T1C0.400
; #@! TA.AperFunction,Plated,PTH,ComponentDrill
T2C0.762
; #@! TA.AperFunction,Plated,PTH,ComponentDrill
T3C0.950
; #@! TA.AperFunction,Plated,PTH,ComponentDrill
T4C1.000
; #@! TA.AperFunction,Plated,PTH,ComponentDrill
T5C1.100
; #@! TA.AperFunction,Plated,PTH,ComponentDrill
T6C1.320
%
G90
G05
T1
X86.825Y-154.559
X86.868Y-156.845
X86.878Y-155.663
X92.075Y-154.559
X92.075Y-155.664
X92.12Y-156.847
X113.03Y-116.84
X113.095Y-139.7
X115.57Y-116.84
X115.57Y-139.7
X123.698Y-125.984
X124.671Y-135.128
X124.714Y-132.588
X125.349Y-158.826
X125.349Y-160.528
X125.349Y-162.56
X125.349Y-165.1
X125.476Y-149.225
X125.476Y-152.146
X125.476Y-153.416
X125.857Y-131.108
X126.582Y-142.457
X127.0Y-120.396
X127.254Y-165.862
X127.381Y-160.528
X127.381Y-162.56
X127.674Y-139.954
X127.889Y-132.588
X127.889Y-135.128
X130.937Y-155.448
X130.937Y-157.988
X132.969Y-141.52
X134.112Y-139.954
X135.636Y-130.048
X139.781Y-147.747
X140.97Y-144.018
T2
X129.425Y-116.12
X129.425Y-118.66
X129.425Y-121.2
X129.425Y-123.74
X129.425Y-126.28
X129.425Y-128.82
X129.425Y-131.36
X129.425Y-133.9
X129.425Y-136.44
X129.425Y-138.98
X129.425Y-141.52
X129.425Y-144.06
X129.425Y-146.6
X129.425Y-149.14
X129.425Y-151.68
X129.425Y-154.22
X129.425Y-156.76
X129.425Y-159.3
X129.425Y-161.84
X129.425Y-164.38
X144.665Y-116.12
X144.665Y-118.66
X144.665Y-121.2
X144.665Y-123.74
X144.665Y-126.28
X144.665Y-128.82
X144.665Y-131.36
X144.665Y-133.9
X144.665Y-136.44
X144.665Y-138.98
X144.665Y-141.52
X144.665Y-144.06
X144.665Y-146.6
X144.665Y-149.14
X144.665Y-151.68
X144.665Y-154.22
X144.665Y-156.76
X144.665Y-159.3
X144.665Y-161.84
X144.665Y-164.38
T3
X89.58Y-119.38
X89.58Y-129.54
X89.58Y-142.155
X89.58Y-152.315
X89.695Y-165.1
X89.695Y-175.26
X92.08Y-119.38
X92.08Y-129.54
X92.08Y-142.155
X92.08Y-152.315
X92.195Y-165.1
X92.195Y-175.26
X94.58Y-119.38
X94.58Y-129.54
X94.58Y-142.155
X94.58Y-152.315
X94.695Y-165.1
X94.695Y-175.26
X97.08Y-119.38
X97.08Y-129.54
X97.08Y-142.155
X97.08Y-152.315
X97.195Y-165.1
X97.195Y-175.26
X99.58Y-119.38
X99.58Y-129.54
X99.58Y-142.155
X99.58Y-152.315
X99.695Y-165.1
X99.695Y-175.26
T5
X121.793Y-103.607
X121.793Y-106.147
X121.793Y-108.687
T6
X106.565Y-114.3
X106.565Y-116.84
X106.565Y-119.38
X106.565Y-121.92
X106.565Y-124.46
X106.565Y-127.0
X106.565Y-129.54
X106.565Y-132.08
X106.565Y-137.075
X106.565Y-139.615
X106.565Y-142.155
X106.565Y-144.695
X106.565Y-147.235
X106.565Y-149.775
X106.565Y-152.315
X106.565Y-154.855
X106.68Y-160.02
X106.68Y-162.56
X106.68Y-165.1
X106.68Y-167.64
X106.68Y-170.18
X106.68Y-172.72
X106.68Y-175.26
X106.68Y-177.8
X121.805Y-114.3
X121.805Y-116.84
X121.805Y-119.38
X121.805Y-121.92
X121.805Y-124.46
X121.805Y-127.0
X121.805Y-129.54
X121.805Y-132.08
X121.805Y-137.075
X121.805Y-139.615
X121.805Y-142.155
X121.805Y-144.695
X121.805Y-147.235
X121.805Y-149.775
X121.805Y-152.315
X121.805Y-154.855
X121.92Y-160.02
X121.92Y-162.56
X121.92Y-165.1
X121.92Y-167.64
X121.92Y-170.18
X121.92Y-172.72
X121.92Y-175.26
X121.92Y-177.8
T4
G00X94.5Y-106.5
M15
G01X94.5Y-108.5
M16
G05
G00X96.5Y-112.2
M15
G01X98.5Y-112.2
M16
G05
G00X100.5Y-106.5
M15
G01X100.5Y-108.5
M16
G05
M30
